<svg width="886" height="886" viewBox="0 0 886 886" fill="none" xmlns="http://www.w3.org/2000/svg">
<circle cx="443" cy="443" r="443" fill="white" fill-opacity="0.5"/>
<path d="M554.2 599.5L286.5 331.8C264.1 363.2 251 401.6 251 443C251 549 337 635 443 635C484.5 635 522.9 621.9 554.2 599.5ZM599.5 554.2C621.9 522.8 635 484.4 635 443C635 337 549 251 443 251C401.5 251 363.1 264.1 331.8 286.5L599.5 554.2ZM187 443C187 301.6 301.6 187 443 187C584.4 187 699 301.6 699 443C699 584.4 584.4 699 443 699C301.6 699 187 584.4 187 443Z" fill="white"/>
</svg>
