<svg width="886" height="886" viewBox="0 0 886 886" fill="none" xmlns="http://www.w3.org/2000/svg">
<circle cx="443" cy="443" r="443" fill="white" fill-opacity="0.5"/>
<path d="M251 442.951L279.5 214.951C281.5 198.951 295.1 186.951 311.3 186.951H479.9C494.9 186.951 507 199.051 507 214.051C507 217.251 506.4 220.551 505.3 223.551L459 346.951H598.3C618.5 346.951 635 363.351 635 383.651C635 391.051 632.8 398.251 628.6 404.351L436.4 685.351C430.5 693.951 420.8 699.051 410.5 699.051H407.6C391.9 699.051 379.1 686.251 379.1 670.551C379.1 668.251 379.4 665.951 380 663.651L427 474.951H283C265.3 474.951 251 460.651 251 442.951Z" fill="white"/>
</svg>
