<svg width="886" height="886" viewBox="0 0 886 886" fill="none" xmlns="http://www.w3.org/2000/svg">
<circle cx="443" cy="443" r="443" fill="white" fill-opacity="0.5"/>
<path d="M574.5 282.899C557.9 282.899 541.8 287.399 527.7 295.599C511.9 279.599 493.5 266.199 473.2 256.099C501.4 232.099 537.3 218.899 574.5 218.899C660.9 218.899 731 288.899 731 375.399C731 416.899 714.5 456.699 685.2 485.999L614.1 557.099C584.8 586.399 545 602.899 503.5 602.899C417.1 602.899 347 532.899 347 446.399C347 444.899 347 443.399 347.1 441.899C347.6 424.199 362.3 410.299 380 410.799C397.7 411.299 411.6 425.999 411.1 443.699C411.1 444.599 411.1 445.499 411.1 446.299C411.1 497.399 452.5 538.799 503.6 538.799C528.1 538.799 551.6 529.099 569 511.699L640.1 440.599C657.4 423.299 667.2 399.699 667.2 375.199C667.2 324.099 625.8 282.699 574.7 282.699L574.5 282.899ZM430.2 360.199C428.3 359.399 426.4 358.299 424.7 357.099C412.1 350.599 397.7 346.899 382.6 346.899C358.1 346.899 334.6 356.599 317.2 373.999L246.1 445.099C228.8 462.399 219 485.999 219 510.499C219 561.599 260.4 602.999 311.5 602.999C328 602.999 344.1 598.599 358.2 590.399C374 606.399 392.4 619.799 412.8 629.899C384.6 653.799 348.8 667.099 311.5 667.099C225.1 667.099 155 597.099 155 510.599C155 469.099 171.5 429.299 200.8 399.999L271.9 328.899C301.2 299.599 341 283.099 382.5 283.099C469.1 283.099 539 353.699 539 439.999C539 441.299 539 442.599 539 443.899C538.6 461.599 523.9 475.499 506.2 475.099C488.5 474.699 474.6 459.999 475 442.299C475 441.499 475 440.799 475 439.999C475 406.299 457 376.699 430.2 360.399V360.199Z" fill="white"/>
</svg>
