<svg width="886" height="886" viewBox="0 0 886 886" fill="none" xmlns="http://www.w3.org/2000/svg">
<circle cx="443" cy="443" r="443" fill="white" fill-opacity="0.5"/>
<path d="M363 211C363 197.7 352.3 187 339 187C325.7 187 315 197.7 315 211V251C279.7 251 251 279.7 251 315H211C197.7 315 187 325.7 187 339C187 352.3 197.7 363 211 363H251V419H211C197.7 419 187 429.7 187 443C187 456.3 197.7 467 211 467H251V523H211C197.7 523 187 533.7 187 547C187 560.3 197.7 571 211 571H251C251 606.3 279.7 635 315 635V675C315 688.3 325.7 699 339 699C352.3 699 363 688.3 363 675V635H419V675C419 688.3 429.7 699 443 699C456.3 699 467 688.3 467 675V635H523V675C523 688.3 533.7 699 547 699C560.3 699 571 688.3 571 675V635C606.3 635 635 606.3 635 571H675C688.3 571 699 560.3 699 547C699 533.7 688.3 523 675 523H635V467H675C688.3 467 699 456.3 699 443C699 429.7 688.3 419 675 419H635V363H675C688.3 363 699 352.3 699 339C699 325.7 688.3 315 675 315H635C635 279.7 606.3 251 571 251V211C571 197.7 560.3 187 547 187C533.7 187 523 197.7 523 211V251H467V211C467 197.7 456.3 187 443 187C429.7 187 419 197.7 419 211V251H363V211ZM347 315H539C556.7 315 571 329.3 571 347V539C571 556.7 556.7 571 539 571H347C329.3 571 315 556.7 315 539V347C315 329.3 329.3 315 347 315ZM363 363V523H523V363H363Z" fill="white"/>
</svg>
