<svg width="886" height="886" viewBox="0 0 886 886" fill="none" xmlns="http://www.w3.org/2000/svg">
<circle cx="443" cy="443" r="443" fill="white" fill-opacity="0.5"/>
<path d="M503.8 219C495.7 233.1 491 249.5 491 267V283H219V507H491V571H219C183.7 571 155 542.3 155 507V283C155 247.7 183.7 219 219 219H503.8ZM491 619C491 636.5 495.7 652.9 503.8 667H275C261.7 667 251 656.3 251 643C251 629.7 261.7 619 275 619H491ZM587 219H683C709.5 219 731 240.5 731 267V619C731 645.5 709.5 667 683 667H587C560.5 667 539 645.5 539 619V267C539 240.5 560.5 219 587 219ZM611 283C597.7 283 587 293.7 587 307C587 320.3 597.7 331 611 331H659C672.3 331 683 320.3 683 307C683 293.7 672.3 283 659 283H611ZM611 379C597.7 379 587 389.7 587 403C587 416.3 597.7 427 611 427H659C672.3 427 683 416.3 683 403C683 389.7 672.3 379 659 379H611ZM667 523C667 505.3 652.7 491 635 491C617.3 491 603 505.3 603 523C603 540.7 617.3 555 635 555C652.7 555 667 540.7 667 523Z" fill="white"/>
</svg>
