<svg width="886" height="886" viewBox="0 0 886 886" fill="none" xmlns="http://www.w3.org/2000/svg">
<circle cx="443" cy="443" r="443" fill="white" fill-opacity="0.5"/>
<path d="M465.601 666.65C453.101 679.15 432.801 679.15 420.301 666.65L260.301 506.65C247.801 494.15 247.801 473.85 260.301 461.35C272.801 448.85 293.101 448.85 305.601 461.35L443.001 598.75L580.401 461.45C592.901 448.95 613.201 448.95 625.701 461.45C638.201 473.95 638.201 494.25 625.701 506.75L465.701 666.75L465.601 666.65ZM625.601 314.65L465.601 474.65C453.101 487.15 432.801 487.15 420.301 474.65L260.301 314.65C247.801 302.15 247.801 281.85 260.301 269.35C272.801 256.85 293.101 256.85 305.601 269.35L443.001 406.75L580.401 269.45C592.901 256.95 613.201 256.95 625.701 269.45C638.201 281.95 638.201 302.25 625.701 314.75L625.601 314.65Z" fill="white"/>
</svg>
