<svg width="886" height="886" viewBox="0 0 886 886" fill="none" xmlns="http://www.w3.org/2000/svg">
<circle cx="443" cy="443" r="443" fill="white" fill-opacity="0.5"/>
<path d="M363 241V281H523V241C523 236.6 519.4 233 515 233H371C366.6 233 363 236.6 363 241ZM315 281V241C315 210.1 340.1 185 371 185H515C545.9 185 571 210.1 571 241V281H599.1C611.8 281 624 286.1 633 295.1L684.9 347C693.9 356 699 368.2 699 380.9V457H563V441C563 427.7 552.3 417 539 417C525.7 417 515 427.7 515 441V457H371V441C371 427.7 360.3 417 347 417C333.7 417 323 427.7 323 441V457H187V380.9C187 368.2 192.1 356 201.1 347L253 295.1C262 286.1 274.2 281 286.9 281H315ZM187 601V505H323V521C323 534.3 333.7 545 347 545C360.3 545 371 534.3 371 521V505H515V521C515 534.3 525.7 545 539 545C552.3 545 563 534.3 563 521V505H699V601C699 636.3 670.3 665 635 665H251C215.7 665 187 636.3 187 601Z" fill="white"/>
</svg>
