<svg width="886" height="886" viewBox="0 0 886 886" fill="none" xmlns="http://www.w3.org/2000/svg">
<circle cx="443" cy="443" r="443" fill="white" fill-opacity="0.5"/>
<path d="M618.3 209.701C624.7 203.601 634 201.401 642.6 204.201C652.4 207.501 659 216.701 659 227.001V413.901C659 545.101 550.9 651.001 420.2 651.001C343.2 651.001 276.8 601.501 252.7 532.301C217.3 563.101 195 608.401 195 659.001C195 672.301 184.3 683.001 171 683.001C157.7 683.001 147 672.301 147 659.001C147 584.101 185.2 518.101 243.1 479.301C278.4 455.701 320.5 443.001 363 443.001H443C456.3 443.001 467 432.301 467 419.001C467 405.701 456.3 395.001 443 395.001H363C323.3 395.001 285.7 403.801 252 419.501C275.3 349.501 341.2 299.001 419 299.001C485.4 299.001 534.8 276.901 567.7 255.001C586.9 242.201 603.2 226.901 618.4 209.701H618.3Z" fill="white"/>
</svg>
