<svg width="886" height="886" viewBox="0 0 886 886" fill="none" xmlns="http://www.w3.org/2000/svg">
<circle cx="443" cy="443" r="443" fill="white" fill-opacity="0.5"/>
<path d="M503 275C503 239.7 531.7 211 567 211C602.3 211 631 239.7 631 275V307C631 324.7 645.3 339 663 339C680.7 339 695 324.7 695 307V275C695 204.3 637.7 147 567 147C496.3 147 439 204.3 439 275V339H279C243.7 339 215 367.7 215 403V627C215 662.3 243.7 691 279 691H535C570.3 691 599 662.3 599 627V403C599 367.7 570.3 339 535 339H503V275Z" fill="white"/>
</svg>
