<svg width="886" height="886" viewBox="0 0 886 886" fill="none" xmlns="http://www.w3.org/2000/svg">
<circle cx="443" cy="443" r="443" fill="white" fill-opacity="0.5"/>
<path d="M603 699H315C262 699 219 656 219 603V283C219 230 262 187 315 187H619C645.5 187 667 208.5 667 235V523C667 543.9 653.6 561.7 635 568.3V635C652.7 635 667 649.3 667 667C667 684.7 652.7 699 635 699H603ZM315 571C297.3 571 283 585.3 283 603C283 620.7 297.3 635 315 635H571V571H315ZM347 339C347 352.3 357.7 363 371 363H547C560.3 363 571 352.3 571 339C571 325.7 560.3 315 547 315H371C357.7 315 347 325.7 347 339ZM371 411C357.7 411 347 421.7 347 435C347 448.3 357.7 459 371 459H547C560.3 459 571 448.3 571 435C571 421.7 560.3 411 547 411H371Z" fill="white"/>
</svg>
