<svg width="886" height="886" viewBox="0 0 886 886" fill="none" xmlns="http://www.w3.org/2000/svg">
<circle cx="443" cy="443" r="443" fill="white" fill-opacity="0.5"/>
<path d="M387 219H243C229.7 219 219 229.7 219 243V387C219 396.7 224.8 405.5 233.8 409.2C242.8 412.9 253.1 410.8 260 404L300 364L379 443L300 522L260 482C253.1 475.1 242.8 473.1 233.8 476.8C224.8 480.5 219 489.3 219 499V643C219 656.3 229.7 667 243 667H387C396.7 667 405.5 661.2 409.2 652.2C412.9 643.2 410.9 632.9 404 626L364 586L443 507L522 586L482 626C475.1 632.9 473.1 643.2 476.8 652.2C480.5 661.2 489.3 667 499 667H643C656.3 667 667 656.3 667 643V499C667 489.3 661.2 480.5 652.2 476.8C643.2 473.1 632.9 475.1 626 482L586 522L507 443L586 364L626 404C632.9 410.9 643.2 412.9 652.2 409.2C661.2 405.5 667 396.7 667 387V243C667 229.7 656.3 219 643 219H499C489.3 219 480.5 224.8 476.8 233.8C473.1 242.8 475.2 253.1 482 260L522 300L443 379L364 300L404 260C410.9 253.1 412.9 242.8 409.2 233.8C405.5 224.8 396.7 219 387 219Z" fill="white"/>
</svg>
