<svg width="886" height="886" viewBox="0 0 886 886" fill="none" xmlns="http://www.w3.org/2000/svg">
<circle cx="443" cy="443" r="443" fill="white" fill-opacity="0.5"/>
<path d="M443 699C584.4 699 699 584.4 699 443C699 301.6 584.4 187 443 187C301.6 187 187 301.6 187 443C187 584.4 301.6 699 443 699ZM352.4 508.9C372.8 536.9 405.8 555 443 555C480.2 555 513.2 536.9 533.6 508.9C541.4 498.2 556.4 495.8 567.1 503.6C577.8 511.4 580.2 526.4 572.4 537.1C543.3 577 496.2 603 443 603C389.8 603 342.7 577 313.6 537.1C305.8 526.4 308.2 511.4 318.9 503.6C329.6 495.8 344.6 498.2 352.4 508.9ZM331 395C331 377.3 345.3 363 363 363C380.7 363 395 377.3 395 395C395 412.7 380.7 427 363 427C345.3 427 331 412.7 331 395ZM523 363C540.7 363 555 377.3 555 395C555 412.7 540.7 427 523 427C505.3 427 491 412.7 491 395C491 377.3 505.3 363 523 363Z" fill="white"/>
</svg>
