<svg width="886" height="886" viewBox="0 0 886 886" fill="none" xmlns="http://www.w3.org/2000/svg">
<circle cx="443" cy="443" r="443" fill="white" fill-opacity="0.5"/>
<path d="M219 283.002C219 247.702 247.7 219.002 283 219.002H603C638.3 219.002 667 247.702 667 283.002V603.002C667 638.302 638.3 667.002 603 667.002H283C247.7 667.002 219 638.302 219 603.002V283.002ZM283 283.002V347.002H347V283.002H283ZM603 283.002H411V347.002H603V283.002ZM283 411.002V475.002H347V411.002H283ZM603 411.002H411V475.002H603V411.002ZM283 539.002V603.002H347V539.002H283ZM603 539.002H411V603.002H603V539.002Z" fill="white"/>
</svg>
