<svg width="886" height="886" viewBox="0 0 886 886" fill="none" xmlns="http://www.w3.org/2000/svg">
<circle cx="443" cy="443" r="443" fill="white" fill-opacity="0.5"/>
<path d="M401.551 635.129C405.751 622.529 419.351 615.729 431.851 619.929C444.451 624.129 451.251 637.729 447.051 650.329L425.651 714.429C421.451 727.029 407.851 733.829 395.251 729.629C382.651 725.429 375.851 711.829 380.051 699.329L401.451 635.129H401.551ZM521.551 635.129C525.751 622.529 539.351 615.729 551.851 619.929C564.451 624.129 571.251 637.729 567.051 650.329L545.651 714.429C541.451 727.029 527.851 733.829 515.251 729.629C502.651 725.429 495.851 711.829 500.051 699.329L521.451 635.129H521.551ZM641.551 635.129C645.751 622.529 659.351 615.729 671.851 619.929C684.451 624.129 691.251 637.729 687.051 650.329L665.651 714.429C661.451 727.029 647.851 733.829 635.251 729.629C622.651 725.429 615.851 711.829 620.051 699.329L641.451 635.129H641.551ZM594.951 314.929C639.151 314.929 674.951 350.729 674.951 394.929C674.951 402.429 673.851 409.629 671.951 416.429C701.751 428.029 722.951 457.029 722.951 490.929C722.951 535.129 687.151 570.929 642.951 570.929H450.951L442.751 570.529C402.451 566.429 370.951 532.329 370.951 490.929C370.951 451.929 398.851 419.429 435.851 412.429C435.351 409.329 434.951 406.229 434.951 402.929C434.951 372.029 460.051 346.929 490.951 346.929C503.351 346.929 514.851 351.029 524.151 357.829C537.551 332.329 564.251 314.929 594.951 314.929ZM386.951 155.129C392.251 155.129 397.251 157.829 400.251 162.229L447.551 232.629L530.851 216.329C536.051 215.329 541.451 217.029 545.151 220.729C548.951 224.529 550.551 229.929 549.551 235.129L540.951 278.929C529.051 284.429 518.151 291.829 508.551 300.529C502.851 299.529 496.851 299.029 490.851 299.029C476.551 299.029 462.851 302.029 450.451 307.229C433.551 292.229 411.251 283.029 386.851 283.029C333.851 283.029 290.851 326.029 290.851 379.029C290.851 409.929 305.451 437.229 328.051 454.829C324.651 466.329 322.851 478.429 322.851 491.029C322.851 504.229 324.851 516.929 328.551 528.929L326.151 525.429L242.951 541.729C237.751 542.729 232.351 541.029 228.651 537.329C224.851 533.529 223.251 528.129 224.251 522.929L240.551 439.629L170.151 392.229C165.751 389.229 163.051 384.229 163.051 378.929C163.051 373.629 165.651 368.629 170.051 365.729L240.451 318.329L224.151 235.129L223.951 233.129C223.651 228.529 225.251 224.029 228.551 220.729C232.351 216.929 237.751 215.329 242.951 216.329L326.151 232.629L373.451 162.229L374.651 160.629C377.651 157.129 382.051 155.129 386.751 155.129H386.951ZM386.951 330.929C395.551 330.929 403.551 333.229 410.551 337.129C400.851 349.029 393.651 363.029 389.851 378.429C374.851 386.529 361.651 397.629 351.051 410.729C343.551 402.229 338.851 391.129 338.851 378.929C338.851 352.429 360.351 330.929 386.851 330.929H386.951Z" fill="white"/>
</svg>
